<?xml version="1.0" encoding="UTF-8"?>
<svg width="20px" height="20px" viewBox="0 0 20 20" version="1.1" xmlns="http://www.w3.org/2000/svg" xmlns:xlink="http://www.w3.org/1999/xlink">
    <!-- Generator: Sketch 59.1 (86144) - https://sketch.com -->
    <title>event-blue</title>
    <desc>Created with Sketch.</desc>
    <g id="event-blue" stroke="none" stroke-width="1" fill="none" fill-rule="evenodd">
        <g id="Group-2" transform="translate(3.000000, 2.000000)" fill="#2850F0">
            <g id="calendar">
                <path d="M11,2 C12.6568542,2 14,3.34314575 14,5 L14,12 C14,13.6568542 12.6568542,15 11,15 L3,15 C1.34314575,15 2.02906125e-16,13.6568542 0,12 L0,5 C-2.02906125e-16,3.34314575 1.34314575,2 3,2 L11,2 Z M11,6 L3,6 C2.44771525,6 2,6.44771525 2,7 L2,7 L2,12 C2,12.5522847 2.44771525,13 3,13 L3,13 L11,13 C11.5522847,13 12,12.5522847 12,12 L12,12 L12,7 C12,6.44771525 11.5522847,6 11,6 L11,6 Z" id="Combined-Shape"></path>
                <path d="M10.75,0 L9.25,0 C9.11192881,2.53632657e-17 9,0.111928813 9,0.25 L9,5 L9,5 L11,5 L11,0.25 C11,0.111928813 10.8880712,-2.53632657e-17 10.75,0 Z" id="Path" fill-rule="nonzero"></path>
                <path d="M4.75,0 L3.25,0 C3.11192881,2.53632657e-17 3,0.111928813 3,0.25 L3,5 L3,5 L5,5 L5,0.25 C5,0.111928813 4.88807119,-2.53632657e-17 4.75,0 Z" id="Path" fill-rule="nonzero"></path>
            </g>
            <rect id="Rectangle" x="3" y="7" width="2" height="2" rx="0.25"></rect>
            <rect id="Rectangle" x="3" y="10" width="2" height="2" rx="0.25"></rect>
            <rect id="Rectangle" x="6" y="10" width="2" height="2" rx="0.25"></rect>
            <rect id="Rectangle" x="9" y="10" width="2" height="2" rx="0.25"></rect>
            <rect id="Rectangle" x="6" y="7" width="2" height="2" rx="0.25"></rect>
            <rect id="Rectangle" x="9" y="7" width="2" height="2" rx="0.25"></rect>
        </g>
    </g>
</svg>