<svg id="Capa_1" enable-background="new 0 0 512 512" height="512" viewBox="0 0 512 512" width="512" xmlns="http://www.w3.org/2000/svg" xmlns:xlink="http://www.w3.org/1999/xlink"><linearGradient id="lg1"><stop offset="0" stop-color="#00b59c"/><stop offset="1" stop-color="#9cffac"/></linearGradient><linearGradient id="SVGID_1_" gradientUnits="userSpaceOnUse" x1="390.056" x2="494.259" xlink:href="#lg1" y1="122.078" y2="17.876"/><linearGradient id="SVGID_2_" gradientUnits="userSpaceOnUse" x1="4.499" x2="368.502" xlink:href="#lg1" y1="507.498" y2="143.495"/><linearGradient id="SVGID_3_" gradientUnits="userSpaceOnUse" x1="89.337" x2="400.624" y1="401.51" y2="90.224"><stop offset="0" stop-color="#9bff9d"/><stop offset=".9973" stop-color="#e2ffea"/><stop offset="1" stop-color="#e2ffea"/></linearGradient><g><g id="Pen_6_"><path d="m421.791 153.813-63.604-63.604c-5.859-5.859-5.859-15.352 0-21.211l51.323-51.056c19.747-20.085 57.339-27.475 84.814 0 23.378 23.378 23.765 61.357-.029 84.844l-51.293 51.027c-5.859 5.859-15.351 5.859-21.211 0z" fill="url(#SVGID_1_)"/><path d="m400.3 175.3-63.6-63.6c-5.4-5.7-15.601-5.7-21 0l-169.499 169.499-14.347 101.372-74.242-12.786c-1.5 1.199-2.401 2.701-3.001 4.2l-53.399 116.7c-2.401 5.7-1.199 12.599 3.3 16.8 4.287 4.761 11.493 5.571 16.8 3.3l116.7-53.101c1.5-.899 2.999-1.8 4.2-3.3l-10.358-68.419 98.946-20.166 169.5-169.499c6-5.7 6-15.3 0-21z" fill="url(#SVGID_2_)"/></g><g><g><path d="m57.612 369.784 84.6 84.601 88.587-88.585-84.599-84.6zm385.39-237.182-84.902-84.903c-16.934-16.978-46.523-17.036-63.516 0-19.314 19.355-131.541 131.82-138.312 138.605-5.828 5.86-5.828 15.365.031 21.209 5.92 5.89 15.443 5.797 21.24-.029l106.355-106.633 95.295 95.559c8.789 8.804 20.361 13.198 31.904 13.198s23.115-4.395 31.904-13.198c17.579-17.607 17.579-46.23.001-63.808zm-286.862 53.835.132-.132s.001-.001.002-.002c-.061.06-.089.089-.134.134zm0 0c-.277.277-.271.271 0 0z" fill="url(#SVGID_3_)"/></g></g></g></svg>