<?xml version="1.0" encoding="UTF-8"?>
<svg width="20px" height="20px" viewBox="0 0 20 20" version="1.1" xmlns="http://www.w3.org/2000/svg" xmlns:xlink="http://www.w3.org/1999/xlink">
    <!-- Generator: Sketch 59.1 (86144) - https://sketch.com -->
    <title>sprint-blue</title>
    <desc>Created with Sketch.</desc>
    <g id="sprint-blue" stroke="none" stroke-width="1" fill="none" fill-rule="evenodd">
        <path d="M11.75,3 C11.8880712,3 12,3.11192881 12,3.25 L12,3.75 C12,3.88807119 11.8880712,4 11.75,4 L11,4 L11.0008069,5.08309386 C11.9122136,5.23612712 12.7539264,5.59463635 13.4766776,6.10935412 L14.0606602,5.52512627 C14.2559223,5.32986412 14.5725048,5.32986412 14.767767,5.52512627 L15.4748737,6.23223305 C15.6701359,6.42749519 15.6701359,6.74407768 15.4748737,6.93933983 L14.8906459,7.52332235 C15.589169,8.50416765 16,9.70410647 16,11 C16,14.3137085 13.3137085,17 10,17 C6.6862915,17 4,14.3137085 4,11 C4,9.70410647 4.41083098,8.50416765 5.10935412,7.52332235 L4.52512627,6.93933983 C4.32986412,6.74407768 4.32986412,6.42749519 4.52512627,6.23223305 L5.23223305,5.52512627 C5.42749519,5.32986412 5.74407768,5.32986412 5.93933983,5.52512627 L6.52332235,6.10935412 C7.24633754,5.59444841 8.08840107,5.23586533 9.00019152,5.08292631 L9,4 L8.25,4 C8.11192881,4 8,3.88807119 8,3.75 L8,3.25 C8,3.11192881 8.11192881,3 8.25,3 L11.75,3 Z M10,7 L9.9989959,9.00000025 C9.99933058,9.00000008 9.99966528,9 10,9 C11.1045695,9 12,9.8954305 12,11 C12,12.1045695 11.1045695,13 10,13 C8.8954305,13 8,12.1045695 8,11 L6,11 L6.00489531,11.1996403 C6.10892112,13.3160315 7.85780461,15 10,15 C12.209139,15 14,13.209139 14,11 C14,8.790861 12.209139,7 10,7 Z" id="Combined-Shape" fill="#2850F0"></path>
    </g>
</svg>