<?xml version="1.0" encoding="UTF-8"?>
<svg width="20px" height="20px" viewBox="0 0 20 20" version="1.1" xmlns="http://www.w3.org/2000/svg" xmlns:xlink="http://www.w3.org/1999/xlink">
    <!-- Generator: Sketch 59.1 (86144) - https://sketch.com -->
    <title>sun</title>
    <desc>Created with Sketch.</desc>
    <g id="sun" stroke="none" stroke-width="1" fill="none" fill-rule="evenodd">
        <g transform="translate(1.000000, 1.000000)" fill="#FFD018">
            <circle id="Oval" cx="9" cy="9" r="4"></circle>
            <path d="M8,1 L8,2.45454545 C8,3.0068302 8.44771525,3.45454545 9,3.45454545 C9.55228475,3.45454545 10,3.0068302 10,2.45454545 L10,1 C10,0.44771525 9.55228475,0 9,0 C8.44771525,0 8,0.44771525 8,1 Z" id="Path" fill-rule="nonzero"></path>
            <path d="M8,15.5454545 L8,17 C8,17.5522847 8.44771525,18 9,18 C9.55228475,18 10,17.5522847 10,17 L10,15.5454545 C10,14.9931698 9.55228475,14.5454545 9,14.5454545 C8.44771525,14.5454545 8,14.9931698 8,15.5454545 Z" id="Path" fill-rule="nonzero"></path>
            <path d="M2.6347114,4.04892496 L3.66743867,5.08165223 C4.05796296,5.47217652 4.69112794,5.47217652 5.08165223,5.08165223 C5.47217652,4.69112794 5.47217652,4.05796296 5.08165223,3.66743867 L4.04892496,2.6347114 C3.65840067,2.24418711 3.02523569,2.24418711 2.6347114,2.6347114 C2.24418711,3.02523569 2.24418711,3.65840067 2.6347114,4.04892496 Z" id="Path" fill-rule="nonzero"></path>
            <path d="M12.9183477,14.3325613 L13.951075,15.3652886 C14.3415993,15.7558129 14.9747643,15.7558129 15.3652886,15.3652886 C15.7558129,14.9747643 15.7558129,14.3415993 15.3652886,13.951075 L14.3325613,12.9183477 C13.942037,12.5278234 13.308872,12.5278234 12.9183477,12.9183477 C12.5278234,13.308872 12.5278234,13.942037 12.9183477,14.3325613 Z" id="Path" fill-rule="nonzero"></path>
            <path d="M1,10 L2.45454545,10 C3.0068302,10 3.45454545,9.55228475 3.45454545,9 C3.45454545,8.44771525 3.0068302,8 2.45454545,8 L1,8 C0.44771525,8 0,8.44771525 0,9 C0,9.55228475 0.44771525,10 1,10 Z" id="Path" fill-rule="nonzero"></path>
            <path d="M15.5454545,10 L17,10 C17.5522847,10 18,9.55228475 18,9 C18,8.44771525 17.5522847,8 17,8 L15.5454545,8 C14.9931698,8 14.5454545,8.44771525 14.5454545,9 C14.5454545,9.55228475 14.9931698,10 15.5454545,10 Z" id="Path" fill-rule="nonzero"></path>
            <path d="M4.04892497,15.3652886 L5.08165224,14.3325613 C5.47217653,13.942037 5.47217652,13.308872 5.08165222,12.9183477 C4.69112792,12.5278234 4.05796294,12.5278234 3.66743866,12.9183477 L2.63471139,13.951075 C2.2441871,14.3415993 2.24418711,14.9747643 2.63471141,15.3652886 C3.02523571,15.7558129 3.65840069,15.7558129 4.04892497,15.3652886 Z" id="Path" fill-rule="nonzero"></path>
            <path d="M14.3325613,5.08165224 L15.3652886,4.04892497 C15.7558129,3.65840069 15.7558129,3.02523571 15.3652886,2.63471141 C14.9747643,2.24418711 14.3415993,2.2441871 13.951075,2.63471139 L12.9183477,3.66743866 C12.5278234,4.05796294 12.5278234,4.69112792 12.9183477,5.08165222 C13.308872,5.47217652 13.942037,5.47217653 14.3325613,5.08165224 Z" id="Path" fill-rule="nonzero"></path>
        </g>
    </g>
</svg>