<?xml version="1.0" encoding="UTF-8"?>
<svg width="20px" height="20px" viewBox="0 0 20 20" version="1.1" xmlns="http://www.w3.org/2000/svg" xmlns:xlink="http://www.w3.org/1999/xlink">
    <!-- Generator: Sketch 59.1 (86144) - https://sketch.com -->
    <title>task-blue</title>
    <desc>Created with Sketch.</desc>
    <g id="task-blue" stroke="none" stroke-width="1" fill="none" fill-rule="evenodd">
        <path d="M14,3 C15.6568542,3 17,4.34314575 17,6 L17,14 C17,15.6568542 15.6568542,17 14,17 L6,17 C4.34314575,17 3,15.6568542 3,14 L3,6 C3,4.34314575 4.34314575,3 6,3 L14,3 Z M12.1679497,6.4452998 L9,11.1972244 L7.83205029,9.4452998 C7.52569784,8.98577112 6.90482849,8.86159725 6.4452998,9.16794971 C5.98577112,9.47430216 5.86159725,10.0951715 6.16794971,10.5547002 L8.16794971,13.5547002 C8.56377175,14.1484333 9.43622825,14.1484333 9.83205029,13.5547002 L13.8320503,7.5547002 C14.1384028,7.09517151 14.0142289,6.47430216 13.5547002,6.16794971 C13.0951715,5.86159725 12.4743022,5.98577112 12.1679497,6.4452998 Z" id="Combined-Shape" fill="#2850F0"></path>
    </g>
</svg>