<?xml version="1.0" encoding="UTF-8" standalone="no"?>
<!DOCTYPE svg PUBLIC "-//W3C//DTD SVG 1.1//EN" "http://www.w3.org/Graphics/SVG/1.1/DTD/svg11.dtd">
<svg width="100%" height="100%" viewBox="0 0 144 144" version="1.1" xmlns="http://www.w3.org/2000/svg" xmlns:xlink="http://www.w3.org/1999/xlink" xml:space="preserve" xmlns:serif="http://www.serif.com/" style="fill-rule:evenodd;clip-rule:evenodd;stroke-linejoin:round;stroke-miterlimit:2;">
    <g transform="matrix(1,0,0,1,-2416,-1289)">
        <g id="safari-pinned-tab" transform="matrix(4.64516,0,0,4.64516,-8927.48,-3323.65)">
            <rect x="2442" y="993" width="31" height="31" style="fill:white;"/>
            <g transform="matrix(0.107639,0,0,0.107639,2254.6,929.924)">
                <path d="M1780,806l-28,0l-3,-12l15,-46l12,-4l10.271,-28l21.729,-8l-20.261,4l-19.739,4l-2,-4l6,-12l60,-4l32,-38l20,-12l60,8l20,12l12,22l-8,16l8,12l8,0l4,-8l-12,-4l3.429,-13.714l32.571,21.714l7,52l-9,18l-6,2l-40,-16l-2.947,5.895l-17.053,-13.895l28,34l4,12l-32,0l-4,-12l-34,-34l4,-16l-6,16l12,16l-6,22l2,8l-24,0l-2,-8l-2,-34l-2,8l-18,0l-36,3.2l-8,-7.2l14,30l2,8l-24,0l-2,-8l-14,-22l12,-16l-8,-8l5.5,8l-29.5,34l4,12Zm220,-78l4,4l-8,4l-12,-12l16,4Z" style="fill:rgb(8,16,24);"/>
            </g>
        </g>
    </g>
</svg>
